<svg xmlns="http://www.w3.org/2000/svg" width="120" height="120" viewBox="0 0 120 120" version="1.1">
	<path d="M 0 60.008 L 0 120.016 60.250 119.758 L 120.500 119.500 120.758 59.750 L 121.016 0 60.508 0 L 0 0 0 60.008 M 0.469 60.500 C 0.469 93.500, 0.596 106.855, 0.750 90.178 C 0.904 73.501, 0.903 46.501, 0.749 30.178 C 0.595 13.855, 0.469 27.500, 0.469 60.500 M 109.298 7.504 C 108.179 8.288, 107.074 8.740, 106.842 8.509 C 106.611 8.278, 105.204 9.081, 103.715 10.294 C 101.763 11.885, 101.265 12.900, 101.928 13.936 C 102.663 15.083, 103.145 15.125, 104.327 14.144 C 105.500 13.170, 105.913 13.183, 106.327 14.208 C 106.745 15.245, 107.036 15.231, 107.803 14.137 C 108.428 13.245, 108.886 13.155, 109.129 13.876 C 109.351 14.536, 110.631 14.075, 112.322 12.725 C 115.123 10.490, 115.130 10.456, 113.239 8.276 C 111.531 6.306, 111.122 6.226, 109.298 7.504 M 58.250 9.031 C 57.013 9.529, 56 10.139, 56 10.387 C 56 10.872, 63.222 9.055, 63.917 8.395 C 64.698 7.654, 60.507 8.124, 58.250 9.031 M 76.400 11.450 C 76.400 13.394, 75.599 15.786, 74.564 16.929 C 72.602 19.097, 62.447 23.316, 60.640 22.713 C 60.044 22.515, 61.707 21.717, 64.336 20.940 C 66.965 20.164, 69.878 18.658, 70.808 17.593 C 71.739 16.528, 71.919 15.996, 71.210 16.412 C 70.237 16.982, 70.079 16.533, 70.568 14.584 C 71.163 12.216, 70.954 12, 68.076 12 C 63.094 12, 58.160 14.515, 57.429 17.427 C 57.076 18.835, 56.427 19.764, 55.987 19.492 C 55.547 19.220, 55.403 20.010, 55.667 21.249 C 56.136 23.444, 56.109 23.451, 54.574 21.559 C 53.708 20.491, 53 19.254, 53 18.809 C 53 18.364, 52.325 18, 51.500 18 C 49.587 18, 49.526 21.969, 51.398 24.530 C 52.706 26.318, 53.210 26.357, 59.148 25.132 C 62.642 24.412, 66.043 23.374, 66.706 22.825 C 67.370 22.277, 68.431 22.149, 69.066 22.541 C 69.725 22.948, 71.298 22.023, 72.743 20.377 C 74.368 18.524, 75.427 17.945, 75.717 18.750 C 75.964 19.438, 77.029 20, 78.083 20 C 79.138 20, 80.018 20.563, 80.040 21.250 C 80.062 21.938, 80.779 21.209, 81.634 19.632 C 82.489 18.054, 82.998 15.769, 82.765 14.553 C 82.411 12.700, 82.717 12.414, 84.660 12.786 C 85.934 13.029, 86.730 13.627, 86.429 14.114 C 86.128 14.601, 87.016 15, 88.402 15 C 90.874 15, 91.529 15.476, 94.589 19.500 C 96.021 21.383, 96.039 21.354, 94.891 19 C 93.780 16.721, 93.819 16.621, 95.336 17.872 C 96.251 18.627, 97 19.817, 97 20.515 C 97 21.214, 97.652 22.036, 98.449 22.342 C 99.421 22.715, 99.714 22.418, 99.338 21.438 C 98.943 20.409, 99.254 20.160, 100.389 20.596 C 101.275 20.936, 102 20.753, 102 20.190 C 102 19.627, 101.558 19.017, 101.017 18.833 C 100.477 18.650, 99.914 16.863, 99.767 14.862 L 99.500 11.224 96.916 13.062 C 94.435 14.827, 90.956 14.789, 88.500 12.971 C 87.950 12.564, 86.069 11.925, 84.319 11.551 C 82.570 11.177, 80.602 10.225, 79.947 9.436 C 77.898 6.968, 76.400 7.819, 76.400 11.450 M 8.500 14 C 8.840 14.550, 9.568 15, 10.118 15 C 10.668 15, 10.840 14.550, 10.500 14 C 10.160 13.450, 9.432 13, 8.882 13 C 8.332 13, 8.160 13.450, 8.500 14 M 10.924 15.282 C 8.362 17.261, 7.982 20.673, 10.108 22.598 C 11.595 23.943, 12.008 24.009, 12.039 22.905 C 12.061 22.132, 12.737 23.017, 13.542 24.870 C 14.770 27.699, 15.245 28.041, 16.502 26.998 C 18.422 25.405, 21.365 27.528, 20.541 29.910 C 20.239 30.785, 21.096 30.263, 22.446 28.752 L 24.901 26.003 20.760 20.002 C 16.504 13.834, 14.217 12.737, 10.924 15.282 M 113.667 16.667 C 113.300 17.033, 113 17.798, 113 18.367 C 113 18.993, 113.466 18.934, 114.183 18.217 C 114.834 17.566, 115.134 16.801, 114.850 16.517 C 114.566 16.233, 114.033 16.300, 113.667 16.667 M 10.158 19 C 10.158 20.375, 10.385 20.938, 10.662 20.250 C 10.940 19.563, 10.940 18.438, 10.662 17.750 C 10.385 17.063, 10.158 17.625, 10.158 19 M 47.215 22.331 C 47.337 23.799, 48.029 25, 48.753 25 C 49.799 25, 49.829 24.537, 48.900 22.750 C 47.176 19.438, 46.972 19.387, 47.215 22.331 M 114 21.059 C 114 21.641, 114.450 21.840, 115 21.500 C 115.550 21.160, 116 20.684, 116 20.441 C 116 20.198, 115.550 20, 115 20 C 114.450 20, 114 20.477, 114 21.059 M 44.015 23.250 C 44.007 24.762, 44.450 26, 45 26 C 46.264 26, 46.264 23.957, 45 22 C 44.245 20.831, 44.027 21.107, 44.015 23.250 M 103 21.694 C 103 22.321, 103.563 23.060, 104.250 23.338 C 105.030 23.652, 104.873 23.872, 103.833 23.921 C 102.917 23.964, 101.940 23.438, 101.662 22.750 C 101.282 21.808, 101.138 21.799, 101.079 22.715 C 100.994 24.028, 104.413 26.254, 105.242 25.425 C 105.519 25.148, 105.986 25.839, 106.279 26.960 C 106.828 29.060, 105.599 29.778, 104.500 28 C 104.160 27.450, 103.369 27, 102.741 27 C 101.919 27, 101.936 27.336, 102.800 28.200 C 105.152 30.552, 104.196 31.839, 100.750 30.962 C 92.288 28.808, 92.361 28.809, 96 30.903 C 97.925 32.010, 100.146 32.935, 100.936 32.958 C 102.955 33.017, 106.947 36.975, 106.407 38.383 C 106.160 39.026, 107.767 41.320, 109.979 43.479 C 113.507 46.925, 114 47.146, 114 45.286 C 114 44.120, 114.563 42.977, 115.250 42.746 C 116.218 42.420, 116.182 41.941, 115.092 40.620 C 114.026 39.329, 113.966 38.634, 114.842 37.758 C 116.275 36.325, 116.382 33.646, 114.972 34.517 C 114.311 34.926, 114.134 33.966, 114.475 31.826 C 114.946 28.873, 114.852 28.696, 113.642 30.250 C 111.017 33.621, 107.742 32.037, 107.534 27.295 C 107.434 25, 103 19.524, 103 21.694 M 26 23.969 C 26 24.501, 26.675 24.678, 27.500 24.362 C 28.325 24.045, 29 23.609, 29 23.393 C 29 23.177, 28.325 23, 27.500 23 C 26.675 23, 26 23.436, 26 23.969 M 52.500 24 C 52.160 24.550, 52.610 25, 53.500 25 C 54.390 25, 54.840 24.550, 54.500 24 C 54.160 23.450, 53.710 23, 53.500 23 C 53.290 23, 52.840 23.450, 52.500 24 M 41 25.441 C 41 26.298, 41.450 27, 42 27 C 42.550 27, 43 26.577, 43 26.059 C 43 25.541, 42.550 24.840, 42 24.500 C 41.450 24.160, 41 24.584, 41 25.441 M 114.020 25.476 C 113.231 26.426, 113.155 27, 113.819 27 C 115.027 27, 116.436 25.103, 115.743 24.409 C 115.491 24.158, 114.716 24.638, 114.020 25.476 M 27.500 27.325 C 26.950 27.971, 26.532 30.975, 26.571 34 C 26.611 37.025, 26.237 40.326, 25.740 41.336 C 24.466 43.928, 25.735 44.741, 27.443 42.427 C 28.272 41.303, 28.496 40.123, 27.979 39.597 C 27.464 39.071, 27.537 37.864, 28.154 36.712 C 29.010 35.113, 29.385 34.998, 30.092 36.115 C 31.463 38.279, 31.129 31.986, 29.705 28.825 C 28.826 26.874, 28.229 26.468, 27.500 27.325 M 110.500 27 C 110.160 27.550, 110.359 28, 110.941 28 C 111.523 28, 112 27.550, 112 27 C 112 26.450, 111.802 26, 111.559 26 C 111.316 26, 110.840 26.450, 110.500 27 M 65.750 27.706 C 66.987 27.944, 69.013 27.944, 70.250 27.706 C 71.487 27.467, 70.475 27.272, 68 27.272 C 65.525 27.272, 64.513 27.467, 65.750 27.706 M 53.035 29.934 C 52.466 30.998, 52.018 32.686, 52.040 33.684 C 52.070 35.031, 52.473 34.776, 53.601 32.695 C 54.437 31.153, 56.106 29.494, 57.311 29.009 C 59.382 28.174, 59.354 28.123, 56.785 28.063 C 55.079 28.024, 53.686 28.719, 53.035 29.934 M 88.750 28.662 C 89.438 28.940, 90.563 28.940, 91.250 28.662 C 91.938 28.385, 91.375 28.158, 90 28.158 C 88.625 28.158, 88.063 28.385, 88.750 28.662 M 22.789 32.750 C 21.745 33.951, 21.389 35.967, 21.653 39.173 C 21.969 43, 21.719 43.929, 20.270 44.307 C 18.798 44.690, 18.774 44.788, 20.128 44.884 C 21.023 44.948, 22.367 44.263, 23.114 43.363 C 24.560 41.620, 25.036 35.001, 23.715 35 C 23.283 35, 23.411 34.100, 24 33 C 25.320 30.534, 24.807 30.428, 22.789 32.750 M 32.958 39.745 C 29.770 43.139, 29.497 43.609, 32 41.397 C 33.925 39.695, 36.613 37.559, 37.973 36.651 C 39.549 35.598, 39.896 35, 38.931 35 C 38.098 35, 35.410 37.135, 32.958 39.745 M 22.667 45.667 C 22.300 46.033, 22 46.798, 22 47.367 C 22 47.993, 22.466 47.934, 23.183 47.217 C 23.834 46.566, 24.134 45.801, 23.850 45.517 C 23.566 45.233, 23.033 45.300, 22.667 45.667 M 58.166 45.876 C 57.092 46.557, 57.141 46.840, 58.416 47.329 C 59.418 47.714, 60 47.398, 60 46.469 C 60 44.769, 59.942 44.750, 58.166 45.876 M 9.131 49.342 C 7.598 51.190, 8.910 52.232, 10.619 50.524 C 11.379 49.764, 12 48.886, 12 48.571 C 12 47.518, 10.256 47.986, 9.131 49.342 M 21.189 53.250 C 15.049 61.569, 13.265 68.571, 14.954 77.710 C 15.670 81.580, 16.855 84.300, 18.561 85.987 L 21.102 88.500 18.444 83.711 C 16.098 79.485, 15.832 78.074, 16.184 71.711 C 16.601 64.180, 18.239 59.656, 23.231 52.250 C 27.274 46.252, 25.832 46.959, 21.189 53.250 M 53.613 49.541 C 52.726 50.190, 52 51.260, 52 51.919 C 52 52.579, 51.616 52.881, 51.146 52.590 C 49.714 51.705, 48 56.813, 48 61.966 L 48 66.839 44.432 65.854 C 40.056 64.645, 38.950 65.427, 36.449 71.493 C 35.253 74.391, 34.043 75.906, 33.050 75.747 C 30.751 75.379, 28.006 81.751, 27.986 87.500 C 27.977 90.250, 27.550 93.163, 27.037 93.974 C 26.432 94.931, 26.498 95.689, 27.224 96.138 C 28.008 96.623, 27.835 97.602, 26.648 99.415 C 24.962 101.988, 24.967 102, 27.822 102 C 29.420 102, 31.491 101.114, 32.500 100 C 34.902 97.345, 36.306 97.462, 35.423 100.242 C 34.791 102.235, 34.894 102.333, 36.356 101.120 C 37.603 100.084, 38 100.055, 38 101 C 38 101.993, 38.303 101.993, 39.500 101 C 40.618 100.072, 41 100.056, 41 100.937 C 41 101.586, 41.500 101.809, 42.112 101.431 C 42.723 101.053, 43.589 101.335, 44.036 102.058 C 44.705 103.140, 45.125 103.141, 46.424 102.063 C 47.647 101.048, 48 101.034, 48 102 C 48 102.928, 48.342 102.961, 49.342 102.131 C 50.080 101.519, 50.928 101.261, 51.226 101.560 C 51.525 101.858, 52.316 100.617, 52.986 98.801 C 53.655 96.985, 54.420 96.065, 54.687 96.756 C 54.953 97.447, 55.600 97.747, 56.125 97.422 C 56.701 97.067, 56.810 97.909, 56.399 99.547 C 55.880 101.616, 56.048 102.152, 57.109 101.803 C 57.874 101.552, 58.643 100.137, 58.818 98.659 C 59.174 95.644, 63.930 92.667, 70.297 91.472 C 72.333 91.090, 74 90.325, 74 89.772 C 74 89.219, 74.842 88.987, 75.871 89.256 C 76.994 89.550, 78.291 88.983, 79.116 87.839 C 79.872 86.790, 82.180 84.761, 84.245 83.330 C 86.310 81.899, 88 80.114, 88 79.364 C 88 78.614, 88.402 78, 88.894 78 C 89.386 78, 91.234 76.650, 93 75 C 96.423 71.803, 101 70.944, 101 73.500 C 101 74.393, 101.910 74.994, 103.250 74.985 C 104.893 74.974, 105.134 74.738, 104.143 74.110 C 103.197 73.510, 103.122 73.043, 103.893 72.566 C 104.502 72.190, 105.380 72.117, 105.844 72.403 C 106.946 73.085, 114.027 71.127, 113.788 70.207 C 113.686 69.818, 113.955 68.466, 114.384 67.202 C 114.868 65.779, 114.708 64.353, 113.966 63.459 C 113.021 62.320, 113.126 61.254, 114.462 58.440 L 116.157 54.867 113.104 51.949 C 110.490 49.451, 109.676 49.173, 107.456 50.017 C 104.681 51.072, 100 50.366, 100 48.892 C 100 48.401, 99.345 48, 98.545 48 C 96.661 48, 92 52.661, 92 54.545 C 92 56.430, 89.592 56.419, 88.022 54.526 C 87.349 53.716, 85.269 52.766, 83.400 52.415 C 81.530 52.064, 80 51.195, 80 50.482 C 80 49.680, 79.240 49.386, 78 49.710 C 76.900 49.998, 76 50.631, 76 51.117 C 76 51.602, 75.424 52, 74.719 52 C 74.015 52, 72.912 53.395, 72.268 55.100 C 70.920 58.672, 68.317 58.561, 68.847 54.954 C 69.140 52.961, 68.962 52.786, 67.703 53.831 C 66.513 54.819, 65.938 54.801, 64.856 53.744 C 64.110 53.015, 61.638 51.506, 59.363 50.390 C 56.080 48.781, 54.892 48.606, 53.613 49.541 M 45.710 62 C 45.423 63.100, 45.595 64, 46.094 64 C 46.592 64, 47 63.100, 47 62 C 47 60.900, 46.827 60, 46.617 60 C 46.406 60, 45.998 60.900, 45.710 62 M 104.500 65 C 104.840 65.550, 105.541 66, 106.059 66 C 106.577 66, 107 65.550, 107 65 C 107 64.450, 106.298 64, 105.441 64 C 104.584 64, 104.160 64.450, 104.500 65 M 56.829 67.649 C 52.098 70.283, 51.428 72.366, 54.952 73.485 C 57.604 74.327, 59.905 73.084, 61.537 69.928 C 64.430 64.333, 63.550 63.907, 56.829 67.649 M 70.293 73.903 C 69.639 74.950, 66.268 77.176, 62.802 78.849 C 59.336 80.523, 57.345 81.917, 58.378 81.946 C 60.984 82.021, 70.789 76.263, 72.041 73.923 C 73.376 71.429, 71.848 71.412, 70.293 73.903 M 105.813 77.683 C 106.534 77.972, 107.397 77.936, 107.729 77.604 C 108.061 77.272, 107.471 77.036, 106.417 77.079 C 105.252 77.127, 105.015 77.364, 105.813 77.683 M 111.500 92 C 112.275 94.443, 110.471 94.664, 109.142 92.290 C 108.345 90.866, 108.212 91, 108.342 93.096 C 108.466 95.080, 109.081 95.657, 111.249 95.822 C 114.055 96.036, 114.650 94.858, 113.393 91.582 C 112.503 89.262, 110.754 89.648, 111.500 92 M 33.667 103.667 C 33.300 104.033, 33.029 105.271, 33.063 106.417 C 33.122 108.332, 33.204 108.307, 34.085 106.105 C 35.064 103.657, 34.861 102.472, 33.667 103.667 M 86.269 109.352 C 83.615 110.668, 82.473 113, 84.482 113 C 85.263 113, 88.147 112.518, 90.892 111.930 C 94.556 111.144, 95.737 110.479, 95.335 109.430 C 94.692 107.754, 89.579 107.710, 86.269 109.352" stroke="none" fill="black" fill-rule="evenodd"/>
</svg>